<?xml version="1.0" encoding="UTF-8"?>
<svg version="1.1" xmlns="http://www.w3.org/2000/svg" width="512" height="512">
<path d="M0 0 C2.70007761 2.11570062 5.02619112 4.5059556 7.375 7 C8.00277344 7.64195313 8.63054687 8.28390625 9.27734375 8.9453125 C14.90803107 14.7584195 14.90803107 14.7584195 15.25 19.375 C15 23 15 23 13.875 25.375 C11.25065402 27.64943318 9.45152438 27.93096951 6 28 C1.4405994 26.06225474 -1.62774131 22.52910794 -5 19 C-23.22914122 26.45928078 -37.89137548 56.72155977 -47 73 C-47.46889648 73.83080078 -47.93779297 74.66160156 -48.42089844 75.51757812 C-62.49927959 100.6818343 -78 133.49631039 -78 163 C-75.75480164 164.81418965 -75.75480164 164.81418965 -72.8125 166.5625 C-52.89082258 179.39103023 -35.96721914 195.05961697 -23 215 C-22.39285156 215.92167969 -21.78570312 216.84335937 -21.16015625 217.79296875 C-14.43363829 228.60725726 -9.88215066 240.90030202 -6 253 C-5.8047876 252.45287354 -5.6095752 251.90574707 -5.40844727 251.34204102 C3.49404578 226.62207121 18.7127879 191.64360605 44 179 C48.05263598 178.45964854 49.53730231 178.65800605 52.875 181.125 C55 184 55 184 55.6875 186.875 C54.37239205 192.85276342 49.79479407 196.38169684 45.25 200.1875 C35.87445954 208.2211215 29.01012463 218.31253988 23 229 C22.40445312 230.05445313 21.80890625 231.10890625 21.1953125 232.1953125 C10.34486523 252.59415338 5.48514118 275.09921272 4 298 C7.11757527 294.93268949 10.22788747 291.85823106 13.33227539 288.77758789 C14.38444728 287.73533762 15.43842248 286.69490397 16.49438477 285.65649414 C42.93890458 259.63991991 67.01640644 225.1086163 67.32983398 186.6887207 C67.11918487 141.86199538 51.67371386 96.45861501 26.51171875 59.296875 C26.09365967 58.67256592 25.67560059 58.04825684 25.24487305 57.4050293 C24.44322438 56.21851381 23.62667273 55.04186429 22.79223633 53.87817383 C20.02429572 49.8085365 19.45958864 46.86957627 20 42 C21.79828544 39.55946976 23.18956132 38.36600456 25.9375 37.125 C28.75198909 36.9544249 30.46487808 37.79224785 33 39 C40.90875112 46.24653512 45.83045729 57.73603949 51 67 C51.38849121 67.69432129 51.77698242 68.38864258 52.17724609 69.10400391 C58 79.55664678 58 79.55664678 58 82 C65.21968494 77.47369842 65.21968494 77.47369842 72.296875 72.73046875 C86.04797323 63.23325133 100.71431109 55.2015 115.9375 48.3125 C116.65204346 47.98556152 117.36658691 47.65862305 118.1027832 47.32177734 C122.95851573 45.19902113 127.97838747 43.12342299 133.2890625 44.6640625 C145.93937351 54.5417026 148.16586046 86.33834707 150 101 C150.8318851 108.65311687 151.46695492 116.32068388 152 124 C152.69633545 123.78907715 153.3926709 123.5781543 154.11010742 123.36083984 C180.97375732 115.29014023 207.93481186 109.01589473 236 107 C236.85271484 106.93135742 237.70542969 106.86271484 238.58398438 106.79199219 C242.46251823 106.60813753 244.52883248 106.7519531 248.02734375 108.59375 C251.63758902 112.99753434 250.67466966 118.33734601 250.24365234 123.73291016 C245.24954219 170.2011535 220.85687165 213.25295332 192 249 C197.22735142 251.69045819 202.5054824 254.11010435 207.91918945 256.40039062 C216.71996843 260.12536804 225.35779822 264.03996219 233.8125 268.5 C234.61212158 268.92104004 235.41174316 269.34208008 236.2355957 269.77587891 C241.72195622 272.72195622 241.72195622 272.72195622 244 275 C244.47136988 278.14246585 244.70993677 279.99291579 244 283 C238.64533981 288.38534592 232.23303625 292.29825477 225.80297852 296.28857422 C224.05858418 297.3774443 222.33159571 298.49094153 220.60351562 299.60546875 C210.00682066 306.20468145 210.00682066 306.20468145 203 305 C200.5 303.4375 200.5 303.4375 199 301 C198.4375 297.5625 198.4375 297.5625 199 294 C202.39162119 290.0702249 206.26410717 287.32750908 210.6875 284.6875 C211.26822266 284.32849609 211.84894531 283.96949219 212.44726562 283.59960938 C216.73043155 281 216.73043155 281 219 281 C219 280.34 219 279.68 219 279 C217.75347656 278.60941406 216.50695312 278.21882813 215.22265625 277.81640625 C208.42481264 275.55134507 201.9633714 272.52931035 195.43945312 269.58398438 C192.64319282 268.34264519 189.83254622 267.15583164 187 266 C186.25983643 265.6788623 185.51967285 265.35772461 184.75708008 265.02685547 C182.50370283 264.11857711 182.50370283 264.11857711 179 264 C176.10303039 265.60751958 174.05067499 267.83557889 171.8125 270.25 C170.49356561 271.56909801 169.17059542 272.88417227 167.84375 274.1953125 C167.19277344 274.84790039 166.54179687 275.50048828 165.87109375 276.17285156 C130.75192841 310.46719308 77.85661014 320.55355023 31 325 C33.95695918 325.65271686 36.91533298 326.29727263 39.875 326.9375 C40.69742187 327.11990234 41.51984375 327.30230469 42.3671875 327.49023438 C84.77268994 336.60079154 132.95962244 325.28955324 171.03613281 306.13671875 C174.29792121 304.88573961 176.53696182 304.62822734 180 305 C183.32274404 307.45594125 184.77618008 308.9256644 185.625 313 C184.81848415 316.87127607 183.05902491 318.67819403 180 321 C176.68553237 322.85284052 173.24714 324.33926179 169.75 325.8125 C168.74074463 326.24264404 167.73148926 326.67278809 166.69165039 327.1159668 C116.36604388 348.08206454 59.0011979 355.73212947 7.48291016 334.85498047 C4.20129587 333.48022261 1.23283123 332.15279549 -1.75 330.1953125 C-3.91387575 328.80586271 -3.91387575 328.80586271 -6.296875 329.078125 C-10.08120243 330.36873378 -13.63549571 332.04844079 -17.25 333.75 C-64.74635797 355.38760582 -120.16620792 348.78862342 -167.8828125 331.34765625 C-176.79212582 327.9841059 -185.43092512 324.14707902 -194 320 C-194.89702637 319.56929199 -195.79405273 319.13858398 -196.71826172 318.69482422 C-209.1660593 312.69054153 -221.2387576 306.25599103 -233 299 C-233.82790039 298.49227051 -234.65580078 297.98454102 -235.50878906 297.46142578 C-238.11567586 295.85819525 -240.71550485 294.24419818 -243.3125 292.625 C-244.52329224 291.87488647 -244.52329224 291.87488647 -245.75854492 291.10961914 C-255.430757 285.01001666 -255.430757 285.01001666 -256.56640625 281 C-256.56511719 280.34 -256.56382812 279.68 -256.5625 279 C-256.58441406 278.34 -256.60632813 277.68 -256.62890625 277 C-255.2146016 272.50233553 -250.46200818 270.63870765 -246.54296875 268.5546875 C-244.76214245 267.65285665 -242.97669064 266.76012035 -241.1875 265.875 C-239.7641333 265.16573364 -239.7641333 265.16573364 -238.31201172 264.44213867 C-227.43142597 259.10471034 -216.24416892 254.50862449 -205 250 C-205 246.39959792 -208.1647059 243.69698691 -210.3125 240.9375 C-214.83489427 235.02621071 -219.09653092 229.00886704 -223.125 222.75 C-223.58559814 222.03577881 -224.04619629 221.32155762 -224.52075195 220.58569336 C-230.0481098 211.91408612 -230.0481098 211.91408612 -229.8125 207.4375 C-229 204 -229 204 -227.9375 202.0625 C-224.80972014 200.34726588 -221.41294798 200.16805299 -218 201 C-214.11496164 204.08949372 -211.87983766 208.23619051 -209.375 212.4375 C-204.72378157 220.03776682 -199.64337384 227.10463323 -194 234 C-193.55462891 234.54833496 -193.10925781 235.09666992 -192.65039062 235.66162109 C-154.97874128 281.74164634 -106.56946101 301.33466955 -48.13354492 307.29223633 C-43.51711661 307.7344289 -38.95496031 308.12978203 -34.3125 308.0625 C-32.875 308.04166667 -31.4375 308.02083333 -30 308 C-30.92941406 307.154375 -31.85882813 306.30875 -32.81640625 305.4375 C-44.67944246 294.57841954 -44.67944246 294.57841954 -49.37890625 288.9296875 C-51.2602386 286.69022201 -53.25501182 284.57623953 -55.25 282.4375 C-60.58626755 276.52557345 -65.24196275 270.15909894 -69.82861328 263.65917969 C-70.81104778 262.26763637 -71.80811614 260.8864404 -72.80859375 259.5078125 C-75.72958496 255.25458451 -76.89034339 252.14420627 -76 247 C-74.5 244.5625 -74.5 244.5625 -72 243 C-66.51404494 242.12921348 -66.51404494 242.12921348 -64 243 C-60.37901334 246.86162185 -57.44133338 251.14811697 -54.4375 255.5 C-47.32915025 265.61019581 -39.3638685 275.09882213 -30.328125 283.546875 C-29 285 -29 285 -29 287 C-28.15695313 287.35191406 -28.15695313 287.35191406 -27.296875 287.7109375 C-24.45364109 289.30663 -22.51901873 291.28924543 -20.25 293.625 C-19.05117188 294.85089844 -19.05117188 294.85089844 -17.828125 296.1015625 C-17.22484375 296.72804688 -16.6215625 297.35453125 -16 298 C-17.04783127 266.8270196 -26.685119 235.07057329 -47 211 C-47.81855469 210.01902344 -48.63710937 209.03804687 -49.48046875 208.02734375 C-57.96902408 198.17381855 -68.11282983 190.06915797 -79 183 C-79.4241997 193.19650391 -78.15179431 202.03262118 -76 212 C-74.23432945 220.8398931 -74.23432945 220.8398931 -77.0625 225.125 C-80.52251066 227.33351744 -81.98237632 227.83700493 -86 227 C-90.58113237 223.31823104 -92.07861537 219.72045335 -93.25 214.125 C-93.48976562 213.10212891 -93.48976562 213.10212891 -93.734375 212.05859375 C-95.24457714 205.4514594 -96.12895752 198.98378148 -96.09765625 192.19140625 C-96.09443359 190.95068359 -96.09121094 189.70996094 -96.08789062 188.43164062 C-96.07951172 187.15482422 -96.07113281 185.87800781 -96.0625 184.5625 C-96.05798828 183.25861328 -96.05347656 181.95472656 -96.04882812 180.61132812 C-96.03709251 177.40750448 -96.02067363 174.20377637 -96 171 C-96.90886963 170.71189453 -97.81773926 170.42378906 -98.75415039 170.12695312 C-101.35124055 169.22524811 -103.54981868 168.29841992 -105.93359375 166.96875 C-106.651521 166.57574707 -107.36944824 166.18274414 -108.10913086 165.77783203 C-109.26167358 165.14530518 -109.26167358 165.14530518 -110.4375 164.5 C-139.3464914 149.08970795 -171.06331709 138.22384696 -203 131 C-204.25707764 130.71503662 -204.25707764 130.71503662 -205.53955078 130.42431641 C-218.58621234 127.52757938 -231.74429657 125.65030846 -245 124 C-241.64472554 141.30144334 -237.39986648 157.96298541 -229.80297852 173.9309082 C-228.4039889 177.53578416 -228.4797916 180.16346307 -229 184 C-230.5625 186.5 -230.5625 186.5 -233 188 C-236.4375 188.5625 -236.4375 188.5625 -240 188 C-245.09434182 184.01452123 -246.82586576 179.32994456 -248.9375 173.4375 C-249.4473645 172.05171753 -249.4473645 172.05171753 -249.9675293 170.63793945 C-265.30275635 128.29601354 -265.30275635 128.29601354 -262 111 C-259.91447189 108.41910692 -258.37808631 107.19289776 -255.03955078 106.72558594 C-252.60791085 106.68363329 -250.23743555 106.81323929 -247.8125 107 C-246.8939624 107.05978027 -245.9754248 107.11956055 -245.02905273 107.18115234 C-217.25262375 109.24830025 -189.50813755 115.5655926 -163 124 C-163.03480469 123.34 -163.06960937 122.68 -163.10546875 122 C-163.77844913 97.38814614 -159.27269512 67.76082916 -147 46 C-144.4462191 44.01372597 -143.13016589 43.99006243 -139.87890625 44.23828125 C-135.42732751 45.11245834 -131.7249199 46.60862907 -127.625 48.5 C-126.84116943 48.85674805 -126.05733887 49.21349609 -125.24975586 49.58105469 C-107.09173541 57.95411198 -89.92762471 68.08215509 -73.71484375 79.79296875 C-72.00785532 81.05820333 -72.00785532 81.05820333 -70 82 C-69.75378906 81.175 -69.50757813 80.35 -69.25390625 79.5 C-67.80363178 75.45188185 -65.96246884 71.78521046 -63.9375 68 C-63.53974365 67.25451904 -63.1419873 66.50903809 -62.73217773 65.7409668 C-51.25942039 44.5370343 -36.49107458 25.51415454 -20 8 C-19.24074219 7.18660156 -18.48148438 6.37320313 -17.69921875 5.53515625 C-17.01472656 4.82230469 -16.33023438 4.10945313 -15.625 3.375 C-15.03976563 2.76398438 -14.45453125 2.15296875 -13.8515625 1.5234375 C-9.0407971 -2.4347872 -5.70084104 -2.44147368 0 0 Z M-137 63 C-144.02823101 84.85779845 -148.00887008 106.99215742 -147 130 C-141.75642223 132.44372828 -136.48578981 134.80512593 -131.15625 137.0546875 C-121.34864219 141.19569768 -111.71336759 145.49084745 -102.25 150.37109375 C-99.52819209 151.73526911 -96.83098017 152.89294472 -94 154 C-93.79431396 153.13536133 -93.58862793 152.27072266 -93.37670898 151.37988281 C-89.67334595 135.91754646 -85.95491798 120.6444597 -80.34765625 105.73828125 C-79.28163831 102.78124019 -78.4818708 100.09251259 -78 97 C-92.20143702 86.69946404 -106.72796926 77.25022701 -122.1875 68.9375 C-122.87005859 68.56729736 -123.55261719 68.19709473 -124.25585938 67.81567383 C-128.43278891 65.61927406 -132.41994161 64.1464997 -137 63 Z M116 66.375 C115.29520508 66.73078125 114.59041016 67.0865625 113.86425781 67.453125 C96.94457257 76.0727275 81.27387363 85.69492818 66 97 C66.59254478 101.1008342 67.50794284 104.81578557 68.890625 108.71875 C69.26823975 109.80615479 69.64585449 110.89355957 70.03491211 112.01391602 C70.63638062 113.73952759 70.63638062 113.73952759 71.25 115.5 C74.63209976 125.35960119 77.4454922 135.15142155 79.50292969 145.37109375 C79.67598633 146.21929687 79.84904297 147.0675 80.02734375 147.94140625 C80.16906006 148.68076416 80.31077637 149.42012207 80.45678711 150.18188477 C80.91132449 152.22804911 80.91132449 152.22804911 83 154 C83.75804932 153.62302979 84.51609863 153.24605957 85.29711914 152.85766602 C101.59828975 144.78389766 117.89383515 137.25767438 135 131 C135.96048753 107.60145648 132.15275955 85.24508219 125 63 C121.67580465 63 118.91403775 64.8978508 116 66.375 Z M84 171 C83.9906543 171.74870361 83.98130859 172.49740723 83.97167969 173.26879883 C83.12170209 227.67986474 59.40604295 266.29278315 21.36791992 303.59570312 C19.89477397 305.0465697 18.4448499 306.52095247 17 308 C17 308.33 17 308.66 17 309 C26.2891861 309.25539532 35.35711114 308.51539585 44.5625 307.375 C45.27799011 307.28730347 45.99348022 307.19960693 46.73065186 307.10925293 C75.12540474 303.57612395 102.81061085 296.92275623 128 283 C128.91652344 282.49855469 129.83304687 281.99710938 130.77734375 281.48046875 C142.36101908 274.83769759 152.40738563 266.21476788 162 257 C162.56509277 256.46213867 163.13018555 255.92427734 163.71240234 255.37011719 C172.30834195 247.15162978 179.94796829 238.57232714 187 229 C187.43296387 228.41718262 187.86592773 227.83436523 188.31201172 227.23388672 C208.00950753 200.61545056 234.78246694 158.7581054 233 124 C183.75725818 121.97632568 126.17704652 147.65579211 84 171 Z M-198.3046875 264.9765625 C-199.35793213 265.39760254 -200.41117676 265.81864258 -201.49633789 266.25244141 C-202.61129639 266.70538574 -203.72625488 267.15833008 -204.875 267.625 C-206.00220459 268.0792334 -207.12940918 268.5334668 -208.29077148 269.00146484 C-215.9692141 272.11714592 -223.55391901 275.35837789 -231 279 C-231 279.66 -231 280.32 -231 281 C-228.98630898 282.39891931 -226.99141982 283.64650344 -224.875 284.875 C-224.21193848 285.26502197 -223.54887695 285.65504395 -222.86572266 286.05688477 C-173.87713917 314.61777486 -118.63257295 337.93389278 -60.6875 329.6875 C-59.44540771 329.51105957 -59.44540771 329.51105957 -58.17822266 329.33105469 C-52.28112459 328.39924408 -46.67670929 326.83470644 -41 325 C-41 324.67 -41 324.34 -41 324 C-41.67651611 323.93530518 -42.35303223 323.87061035 -43.05004883 323.80395508 C-87.13520419 319.49059269 -132.21360107 310.80449902 -168 283 C-168.90363281 282.30132812 -169.80726563 281.60265625 -170.73828125 280.8828125 C-176.86779889 276.01040951 -182.32406057 270.77290675 -187.6875 265.08984375 C-191.45198462 261.68781795 -193.99047648 263.24545694 -198.3046875 264.9765625 Z " fill="#bb966a" transform="translate(262,73)"/>
<path d="M0 0 C0.65616302 0.01701965 1.31232605 0.03403931 1.9883728 0.05157471 C4.02759952 0.11124988 6.06373877 0.20119556 8.1015625 0.296875 C9.91188965 0.36551758 9.91188965 0.36551758 11.75878906 0.43554688 C59.23531804 2.53984173 103.42123533 13.62237007 148.06079102 29.19244385 C162.57281393 34.24152254 177.18767788 38.56840384 192.1015625 42.296875 C193.00777344 42.52342773 193.91398438 42.74998047 194.84765625 42.98339844 C245.70188224 55.38352365 295.33061131 44.60939295 343.7265625 27.921875 C383.49627797 14.2134143 422.97708725 3.91184016 465.1015625 1.109375 C466.36532715 1.02526367 467.6290918 0.94115234 468.93115234 0.85449219 C472.65399321 0.62951475 476.37511973 0.45052775 480.1015625 0.296875 C480.77203613 0.2646283 481.44250977 0.23238159 482.13330078 0.19915771 C484.16433983 0.10849061 486.19420652 0.04826835 488.2265625 -0.00390625 C489.42539062 -0.04298096 490.62421875 -0.08205566 491.859375 -0.12231445 C495.74944204 0.38064075 497.35454907 1.55431224 500.1015625 4.296875 C500.73046875 6.296875 500.73046875 6.296875 500.6640625 8.296875 C500.66535156 8.956875 500.66664063 9.616875 500.66796875 10.296875 C499.82901895 13.25923566 498.51080711 14.38845433 496.1015625 16.296875 C493.52628922 16.75101447 491.3339014 16.96834305 488.75 17.01953125 C488.02723877 17.04992493 487.30447754 17.0803186 486.55981445 17.1116333 C485.00736208 17.17584273 483.45456011 17.23200896 481.90155029 17.28091431 C477.79955251 17.41363481 473.70091177 17.61586931 469.6015625 17.8125 C468.78319916 17.85051224 467.96483582 17.88852448 467.12167358 17.9276886 C426.68329391 19.87525872 388.65556051 30.88920376 350.57421875 43.78466797 C318.30139297 54.70534991 286.40050307 64.15476668 252.1015625 65.296875 C250.89371094 65.338125 249.68585938 65.379375 248.44140625 65.421875 C210.04598026 66.05716643 174.47483049 56.34694056 138.52706909 43.92419434 C99.27485067 30.36960296 59.79114261 19.77011986 18.140625 17.75 C17.31515671 17.70937439 16.48968842 17.66874878 15.63920593 17.62689209 C11.61868625 17.43537161 7.59976367 17.27335712 3.57641602 17.15527344 C2.11994709 17.09849513 0.66348512 17.04153826 -0.79296875 16.984375 C-2.07018799 16.94699219 -3.34740723 16.90960938 -4.66333008 16.87109375 C-8.4062291 16.206744 -9.61901014 15.27922488 -11.8984375 12.296875 C-12.46484375 10.296875 -12.46484375 10.296875 -12.4609375 8.296875 C-12.48285156 7.636875 -12.50476562 6.976875 -12.52734375 6.296875 C-10.67647284 0.41087558 -5.38808241 -0.1776529 0 0 Z " fill="#bb966a" transform="translate(11.8984375,412.703125)"/>
<path d="M0 0 C2.375 1.5625 2.375 1.5625 4 4 C4.80730018 8.01178761 4.61584485 10.97359191 2.5 14.5 C-1.03588973 16.62153384 -3.97901723 16.791013 -8 16 C-10.5 14.5 -10.5 14.5 -12 12 C-12.54719708 9.21841484 -12.58180519 6.7778346 -12 4 C-8.34417575 -0.75257152 -5.74337249 -1.49327685 0 0 Z " fill="#bb966a" transform="translate(260,35)"/>
</svg>
